<svg xmlns="http://www.w3.org/2000/svg"  viewBox="0 0 48 48" width="48px" height="48px"><path fill="#fcbf95" d="M24.9,33h-3.6l-5.8,0.1l-2.1,0.5l-0.6,0.6l-0.8,1l0.5,1.9l1.1,1.3l0.7,0.5l1.2,0.6l1.9,0.2l1,0.3l2.2,1.1 l1.9,0.8l2,0.5l2.2,0.2h2.1h2.7c0,0,2.2-1.2,2.4-1.3s3.3-0.6,3.3-0.6l1.7-1.4l1.8-1.9l0.4-1.9L40.7,33l-0.4-0.9l-5.2-0.2L32.8,31 h-1.3l-2.9,0.7l-2,0.5L24.9,33z"/><path fill="#283d5b" d="M39.2,21.7c-13.1-1.1-22.7,1.3-27.4,6.5l1.1,5c10.5,0.7,17-2.3,18.7-2.4c0.8-0.1,4.9,0.6,9,1.3 C41.6,28.4,40.4,24.3,39.2,21.7z"/><path fill="#bcbcbc" d="M39.5,21.9l3.4-0.7l-2.9-1c1.6-1.1,0.9-3.9,0.8-6.3l-3.3,4.2c-0.6-3.8-0.8-7.5-5.1-11.5 c-0.5,1.5-0.3,3.5-0.3,5c-4-3.1-7.6-5.3-12.1-6.2l1.1,3.5l-5.4-0.2l1,1.7l-8.6,1l4.3,3.3c-3,1.2-5.3,3-7.1,5.4l4.1-0.8l-2.3,5.8 l2.6-0.5C9,26.4,8.8,28.2,9.6,30c0,0,1.3-1.4,1.6-1.2c0.3,0.1,0.5,0.6,0.5,0.6l2.5-2.4l0.7-0.7l0.5,0.8l2.8-2.9l1.3-0.9l1.9-0.5 l2.3-0.4l3.4-0.5l2.9-0.5c0,0,3.4,0,3.5,0c0.1,0,3.6,0.7,4.3,0.7C38.6,22,39.5,21.9,39.5,21.9z"/><path fill="#010101" d="M9.3,30.8c-0.1,0-0.1,0-0.2,0c-0.2-0.1-0.3-0.2-0.3-0.4c-0.3-1.7-0.3-3.4,0.1-5l-2.3,0.8 c-0.2,0.1-0.4,0-0.5-0.1S5.9,25.8,6,25.6l2.1-5.2l-3.7,1c-0.2,0.1-0.4,0-0.5-0.2s-0.1-0.4,0-0.6c1.8-2.7,4.6-4.5,7.2-6 c-0.8-0.3-1.5-0.8-2.2-1.3c-0.5-0.4-0.9-0.8-1.3-1.2C7.3,11.8,7,11.4,7.2,11c0.2-0.4,0.7-0.5,1.1-0.5l1.8-0.1 c0.8-0.1,1.7-0.1,2.5-0.2c0.5-0.1,1-0.1,1.5-0.1c0.2,0,0.5,0,0.7-0.1c0.2-0.1,0.5-0.2,0.7-0.2c0,0-1-1.1-1-1.1 c-0.1-0.2-0.2-0.4,0-0.6c0.1-0.2,0.4-0.3,0.6-0.2c1.7,0.6,3.6,0.8,5.5,0.7l-1.8-3.2c-0.1-0.2-0.1-0.4,0-0.5 c0.1-0.2,0.3-0.2,0.5-0.2C24,5.3,28,8,31.6,10.6l0.1-4.5c0-0.2,0.1-0.4,0.3-0.5c0.2-0.1,0.4,0,0.5,0.1c3.1,2.9,5.1,7,5.4,11.2 c1-1,1.8-2.3,2.3-3.7c0.1-0.2,0.3-0.3,0.5-0.3s0.4,0.1,0.5,0.4c0.6,2.1,0.4,4.4-0.5,6.4c1.2,0.1,2.3,0.5,3.3,1.1 c0.2,0.1,0.3,0.4,0.2,0.6s-0.3,0.4-0.5,0.3c-0.7,0-1.4,0.2-2.2,0.5c-0.7,0.3-1.4,0.5-2.2,0.6c-0.7,0-1.4-0.1-2.1-0.3 c-0.2,0-0.3-0.1-0.5-0.1c-1.9-0.4-4-0.3-6-0.3c-3.2,0.1-6.4,0.2-9.5,1.2c-1.4,0.4-4.8,1.8-5.4,4.7c-0.1,0.2-0.2,0.4-0.5,0.4 c-0.2,0-0.4-0.2-0.5-0.4l-0.2-0.8l-2.7,3.4c-0.1,0.2-0.3,0.2-0.5,0.2s-0.3-0.2-0.4-0.4l-0.1-0.7l-1.5,1.1 C9.5,30.8,9.4,30.8,9.3,30.8z M9.6,24.1c0.1,0,0.3,0,0.3,0.1c0.1,0.1,0.2,0.3,0.1,0.5c-0.5,1.5-0.6,3.1-0.4,4.7l1.5-1.1 c0.1-0.1,0.3-0.1,0.5-0.1c0.2,0.1,0.3,0.2,0.3,0.4L12,29l2.7-3.4c0.1-0.2,0.3-0.2,0.5-0.2s0.3,0.2,0.4,0.4V26 c1.4-2.3,4.2-3.4,5.5-3.8c3.2-1,6.5-1.1,9.7-1.2c2-0.1,4.1-0.1,6.2,0.3c0.2,0,0.4,0.1,0.5,0.1c0.6,0.1,1.2,0.3,1.8,0.3 s1.2-0.3,1.9-0.5c0.3-0.1,0.5-0.2,0.8-0.3c-0.7-0.2-1.4-0.3-2.2-0.3c-0.2,0-0.4-0.1-0.4-0.3c-0.1-0.2-0.1-0.4,0-0.5 c0.9-1.4,1.3-3.1,1.1-4.8c-0.7,1.3-1.6,2.4-2.8,3.3c-0.1,0.1-0.4,0.1-0.5,0.1c-0.2-0.1-0.3-0.3-0.3-0.5c0-4-1.6-7.9-4.3-10.8 l-0.1,4.2l0,0c0,0.2-0.1,0.4-0.3,0.4c-0.2,0.1-0.4,0.1-0.5,0C28.3,9.2,24.4,6.4,20,5.4l1.6,3c0.1,0.1,0.1,0.3,0,0.5 c-0.1,0.1-0.2,0.2-0.4,0.3c-1.7,0.2-3.4,0.1-5-0.3l0.8,1c0.2,0.2,0.2,0.5-0.1,0.7c-0.2,0.2-0.4,0.1-0.6,0.1c-0.4,0-0.8,0.1-1.3,0.2 C14.6,11,14.3,11,13.9,11c-0.4,0-0.8,0-1.3,0.1c-0.8,0.1-1.7,0.1-2.5,0.2l-1.8,0.1c0.3,0.4,0.7,0.7,1.1,1.1 c0.9,0.7,1.9,1.2,2.9,1.5c0.2,0.1,0.3,0.2,0.4,0.4c0,0.2-0.1,0.4-0.2,0.5c-2.4,1.4-5,2.9-6.9,5.1l3.2-1c0.2,0,0.4,0,0.5,0.1 s0.2,0.3,0.1,0.5l-2.1,5.2l2.1-0.7C9.5,24.1,9.5,24.1,9.6,24.1z"/><path fill="#010101" d="M12.8,33.5c-0.2,0-0.3-0.1-0.4-0.2L12,32.8c-0.1-0.1-0.1-0.2-0.1-0.3v-2.2c0-0.3,0.2-0.5,0.5-0.5 s0.5,0.2,0.5,0.5v2l0.2,0.3c0.2,0.2,0.1,0.5-0.1,0.7C13,33.4,12.9,33.5,12.8,33.5z"/><path fill="#010101" d="M18.7,33.5h-3.1c-0.3,0-0.5-0.2-0.5-0.5s0.2-0.5,0.5-0.5h6.5c0.4-0.1,0.9-0.1,1.4-0.2c1.7-0.2,3.5-0.5,5.1-1.1 c0.6-0.3,1.8-0.7,2.1-0.8c0.7-0.1,1.4-0.2,2.2-0.1c0.4,0.1,0.8,0.3,1.1,0.4c0.4,0.2,0.7,0.3,1.1,0.4c0.4,0,0.8,0,1.2,0 c0.3,0,0.5,0,0.8,0c1.7,0.1,2.6,0.2,3.1,0.3c0-0.1,0-0.1,0.1-0.2c0.3-0.8,0.5-1.6,0.4-2.4c-0.1-0.4-0.1-0.8-0.1-1.3 c-0.1-0.9-0.2-1.8-0.5-2.6c0-0.1-1.1-2.5-1.1-2.5l0.9-0.4l1.1,2.5c0.3,0.8,0.4,1.9,0.5,2.8c0,0.4,0.1,0.9,0.1,1.2 c0.2,1-0.1,2-0.4,2.9C41.1,31.8,41,32,41,32.2c-0.1,0.3-0.4,0.4-0.6,0.3c-0.1,0-0.1-0.1-0.2-0.1c-0.5-0.1-2.3-0.2-3.1-0.3 c-0.3,0-0.5,0-0.8,0c-0.4,0-0.8,0-1.2,0c-0.6,0-1.1-0.3-1.5-0.5c-0.3-0.1-0.6-0.3-0.9-0.4c-0.6-0.1-1.2,0-1.8,0.1 c-0.2,0-1,0.3-1.9,0.7c-1.7,0.7-3.6,0.9-5.4,1.2c-0.5,0.1-1,0.1-1.4,0.2L18.7,33.5z M40,31.9C40,32,40,32,40,31.9 C40,32,40,32,40,31.9z"/><path fill="#010101" d="M28.3,43.4c-0.3,0-0.7,0-1,0c-3-0.2-5.5-1.4-8.2-2.6l-0.7-0.3c-0.1-0.1-0.2-0.1-0.4-0.1c-0.1,0-0.3,0-0.5,0 c-2.7-0.1-4.6-1-5.5-2.7c-0.3-0.6-0.7-1.6-0.6-2.5c0.1-1.5,1.3-2.5,3.1-2.5h1.2c0.3,0,0.5,0.2,0.5,0.5s-0.2,0.5-0.5,0.5h-1.2 c-0.6,0-2,0.2-2.2,1.6c0,0.6,0.1,1.2,0.5,2c0.7,1.4,2.3,2.1,4.6,2.2c0.3,0,0.5,0,0.8,0.1c0.2,0,0.4,0.1,0.5,0.2l0.7,0.3 c2.6,1.2,5,2.4,7.8,2.5c1.2,0.1,2.4,0,3.5-0.2c0.9-0.2,1.7-0.5,2.6-0.9l0.7-0.3c0.5-0.2,0.9-0.3,1.4-0.5c1.2-0.4,2.4-0.8,3.5-1.5 c1.2-0.7,2.2-2.7,2-4.2c-0.1-0.5-0.3-0.9-0.6-1.4l-0.2-0.3c0,0,0-0.1-0.1-0.1v-1c-0.1-0.3,0.1-0.5,0.4-0.6c0.3-0.1,0.5,0.1,0.6,0.4 l0.2,0.8l0.2,0.3c0.3,0.5,0.7,1.1,0.8,1.8c0.2,1.8-0.9,4.3-2.5,5.2c-1.1,0.7-2.4,1.1-3.7,1.5c-0.5,0.2-0.9,0.3-1.4,0.5l-0.7,0.3 c-0.9,0.3-1.8,0.7-2.8,0.9C30.2,43.3,29.3,43.4,28.3,43.4z"/><path fill="#010101" d="M31.6,34.6c-0.1,0-0.1,0-0.2,0c-0.7-0.1-1.1-0.7-1.3-1.1c-0.1-0.1-0.1-0.2-0.2-0.3c-0.2-0.2-0.1-0.5,0.1-0.7 s0.5-0.1,0.7,0.1c0.1,0.1,0.1,0.2,0.2,0.3c0.2,0.3,0.4,0.6,0.5,0.6c0.6,0,0.7-0.1,1-0.6l0.2-0.3c0.2-0.2,0.5-0.3,0.7-0.1 s0.3,0.5,0.1,0.7l-0.2,0.3C33,34.1,32.6,34.6,31.6,34.6z"/><path fill="#010101" d="M19.2,18.2c-0.1,0-0.1,0-0.2,0c-0.3-0.1-0.5-0.2-0.8-0.3c-0.7-0.3-1.3-0.5-2-0.7c-0.2,0-0.4-0.1-0.6-0.2 c-0.4-0.1-0.9-0.3-1.1-0.2c-0.3,0.1-0.5-0.1-0.6-0.4s0.1-0.5,0.4-0.6c0.4-0.1,0.7-0.2,1.1-0.3c0.8-0.2,1.6-0.4,2.4-0.4 s1.6,0.2,2.3,0.3c0.3,0.1,0.5,0.1,0.8,0.2c0.3,0.1,0.4,0.3,0.4,0.6c-0.1,0.3-0.3,0.4-0.6,0.4c-0.3-0.1-0.5-0.1-0.8-0.2 c-0.7-0.2-1.4-0.3-2.1-0.3c-0.4,0-0.8,0.1-1.2,0.1c0.7,0.2,1.3,0.4,1.9,0.7c0.3,0.1,0.5,0.2,0.8,0.3c0.3,0.1,0.4,0.4,0.3,0.6 C19.6,18.1,19.4,18.2,19.2,18.2z"/><path fill="#010101" d="M32.3,19.8L32,18.5l-0.3,0.6c-0.1,0.2-0.2,0.3-0.4,0.3c-0.2,0-0.4-0.1-0.4-0.2c-0.6-0.9-1.2-1.8-1.9-2.8 c0.1,0.5,0.3,1.1,0.4,1.6c0.1,0.3-0.1,0.5-0.4,0.6s-0.5-0.1-0.6-0.4C28,16.7,27.5,15.3,27,14c-0.1-0.2,0-0.5,0.2-0.6 s0.5-0.1,0.6,0.1c1.2,1.5,2.3,3,3.2,4.4l0.5-1c0.1-0.2,0.3-0.3,0.5-0.3c0.2,0,0.4,0.2,0.4,0.4l0.7,2.5c0.1,0.3-0.1,0.5-0.3,0.6 C32.9,20.1,32.4,20.1,32.3,19.8z"/><path fill="#010101" d="M16.2,38.3c-0.1,0-0.3-0.1-0.4-0.2c-0.2-0.2-0.2-0.4-0.3-0.6c-0.1-0.4,0-0.7,0.1-1.1c0-0.1,0.1-0.2,0.1-0.3 c0.1-0.4-0.3-1-0.7-1.1c-0.3-0.1-0.7,0-1,0.3c-0.2,0.2-0.5,0.2-0.7,0s-0.2-0.5,0-0.7c0.6-0.6,1.4-0.8,2.1-0.5 c0.8,0.3,1.5,1.3,1.3,2.3c0,0.1-0.1,0.2-0.1,0.4c-0.1,0.2-0.1,0.4-0.1,0.6h0.2c0.3,0,0.5,0.2,0.5,0.5c0,0.2-0.1,0.3-0.2,0.4 c-0.1,0.1-0.3,0.1-0.5,0.1C16.6,38.4,16.3,38.3,16.2,38.3z"/></svg>